<svg xmlns="http://www.w3.org/2000/svg" width="150" height="200"><g id="southchinasea"><title>South China Sea</title><line id="svg_1" x1="20" x2="145" y1="7" y2="7"/><line id="svg_2" x1="20" x2="6" y1="7" y2="24"/><line id="svg_3" x1="145" x2="145" y1="7" y2="195"/><line id="svg_4" x1="6" x2="6" y1="24" y2="195"/><line id="svg_5" x1="6" x2="145" y1="195" y2="195"/><path id="svg_6" d="m6,31.5l9,7.5l15,9l15,4l18,0l17,-14l21,-31L20,7L6,24z"/><path id="svg_7" d="m113,7l10,25l11,-25z"/><path id="svg_9" d="m46.5,66.5l14.5,-6.5l-1,13l-7,7l-15,4l8.5,-17.5z"/><line id="svg_10" x1="141.5" x2="132.5" y1="31.5" y2="46.5"/><line id="svg_11" x1="121.5" x2="115.5" y1="61.5" y2="76.5"/><line id="svg_12" x1="110.5" x2="110.5" y1="92.5" y2="111.5"/><line id="svg_13" x1="108.5" x2="101.5" y1="127.5" y2="147.5"/><line id="svg_14" x1="91.5" x2="78.5" y1="163.5" y2="177.5"/><line id="svg_15" x1="54.5" x2="39.5" y1="184.5" y2="188.5"/><line id="svg_16" x1="17.5" x2="11.5" y1="172.5" y2="158.5"/><line id="svg_17" x1="24.5" x2="39.5" y1="142.5" y2="132.5"/><line id="svg_18" x1="40.5" x2="37.5" y1="113.5" y2="98.5"/></g></svg>